<svg width="497" height="564" viewBox="0 0 497 564" fill="none" xmlns="http://www.w3.org/2000/svg">
<rect width="497" height="564" fill="white"/>
<path d="M444.248 78.464C444.979 78.464 445.755 78.601 446.577 78.875C447.399 79.0577 448.312 79.5143 449.317 80.245C450.961 81.7063 452.925 82.9393 455.208 83.944C457.583 84.8573 460.277 85.314 463.291 85.314C466.67 85.314 469.821 84.5377 472.744 82.985C475.667 81.341 478.041 79.0577 479.868 76.135C481.695 73.2123 482.608 69.7417 482.608 65.723C482.608 61.613 481.74 58.2793 480.005 55.722C478.27 53.0733 476.032 51.1097 473.292 49.831C470.552 48.461 467.675 47.776 464.661 47.776C462.926 47.776 461.464 47.9587 460.277 48.324C459.09 48.598 457.948 48.9177 456.852 49.283C455.756 49.557 454.569 49.694 453.29 49.694C451.555 49.694 450.185 49.1003 449.18 47.913C448.175 46.6343 447.673 45.1273 447.673 43.392C447.673 42.296 447.901 41.337 448.358 40.515C448.815 39.693 449.454 38.7797 450.276 37.775L475.621 10.649L478.635 13.389H442.33C440.503 13.389 438.951 12.7953 437.672 11.608C436.485 10.3293 435.891 8.77666 435.891 6.95C435.891 5.21466 436.485 3.75333 437.672 2.56599C438.951 1.37866 440.503 0.784993 442.33 0.784993H485.622C487.997 0.784993 489.732 1.46999 490.828 2.84C492.015 4.21 492.609 5.80833 492.609 7.63499C492.609 8.63966 492.335 9.59867 491.787 10.512C491.33 11.4253 490.737 12.293 490.006 13.115L464.524 40.515L461.099 36.816C461.83 36.4507 463.063 36.0853 464.798 35.72C466.533 35.3547 467.949 35.172 469.045 35.172C474.251 35.172 478.909 36.4963 483.019 39.145C487.22 41.7937 490.463 45.3557 492.746 49.831C495.121 54.215 496.308 59.1927 496.308 64.764C496.308 71.4313 494.801 77.231 491.787 82.163C488.773 87.0037 484.572 90.7483 479.183 93.397C473.886 96.0457 467.766 97.37 460.825 97.37C457.354 97.37 453.884 96.9133 450.413 96C447.034 94.9953 444.111 93.5797 441.645 91.753C440.092 90.8397 439.042 89.8807 438.494 88.876C437.946 87.78 437.672 86.7297 437.672 85.725C437.672 83.9897 438.266 82.3457 439.453 80.793C440.732 79.2403 442.33 78.464 444.248 78.464Z" fill="#00A54F"/>
<path d="M324.205 450.291C299.662 463.407 272.098 469.83 244.285 468.914C216.472 467.999 189.39 459.776 165.763 445.075C142.135 430.373 122.795 409.709 109.687 385.162C96.578 360.615 90.1633 333.049 91.0874 305.236C92.0116 277.424 100.242 250.345 114.951 226.722C129.66 203.099 150.329 183.765 174.881 170.664C199.432 157.563 227 151.156 254.812 152.089C282.624 153.022 309.701 161.26 333.32 175.977" stroke="#44E491" stroke-width="21"/>
<path d="M383.965 394.414C399.288 369.859 407.595 341.578 407.986 312.637C408.376 283.696 400.834 255.201 386.178 230.243" stroke="#44E491" stroke-width="21"/>
<g filter="url(#filter0_d_0_1)">
<path d="M294.468 536.571C338.199 527.872 378.447 506.682 410.353 475.596C411.539 474.44 411.538 472.538 410.367 471.367L306.087 367.087C304.915 365.915 303.02 365.92 301.803 367.045C291.384 376.683 278.486 383.269 264.527 386.046C249.585 389.018 234.098 387.493 220.023 381.663C205.949 375.833 193.919 365.96 185.455 353.293C176.992 340.626 172.474 325.734 172.474 310.5C172.474 295.266 176.992 280.374 185.455 267.707C193.919 255.04 205.949 245.167 220.023 239.337C234.098 233.507 249.585 231.982 264.527 234.954C278.486 237.731 291.384 244.317 301.803 253.955C303.02 255.08 304.915 255.085 306.087 253.913L410.367 149.633C411.538 148.462 411.539 146.56 410.353 145.404C378.447 114.318 338.199 93.1276 294.468 84.429C249.756 75.5351 203.41 80.0998 161.291 97.5458C119.173 114.992 83.1739 144.536 57.8462 182.441C32.5186 220.347 19 264.911 19 310.5C19 356.089 32.5186 400.653 57.8463 438.559C83.1739 476.464 119.173 506.008 161.291 523.454C203.41 540.9 249.756 545.465 294.468 536.571Z" stroke="#00A54F" stroke-width="30" shape-rendering="crispEdges"/>
</g>
<defs>
<filter id="filter0_d_0_1" x="0" y="64.9999" width="430.244" height="499" filterUnits="userSpaceOnUse" color-interpolation-filters="sRGB">
<feFlood flood-opacity="0" result="BackgroundImageFix"/>
<feColorMatrix in="SourceAlpha" type="matrix" values="0 0 0 0 0 0 0 0 0 0 0 0 0 0 0 0 0 0 127 0" result="hardAlpha"/>
<feOffset dy="4"/>
<feGaussianBlur stdDeviation="2"/>
<feComposite in2="hardAlpha" operator="out"/>
<feColorMatrix type="matrix" values="0 0 0 0 0 0 0 0 0 0 0 0 0 0 0 0 0 0 0.25 0"/>
<feBlend mode="normal" in2="BackgroundImageFix" result="effect1_dropShadow_0_1"/>
<feBlend mode="normal" in="SourceGraphic" in2="effect1_dropShadow_0_1" result="shape"/>
</filter>
</defs>
</svg>
